<svg width="329" height="87" viewBox="0 0 329 87" fill="none" xmlns="http://www.w3.org/2000/svg">
<g filter="url(#filter0_dddd_2155_1112)">
<rect x="10" y="14" width="307" height="56" rx="28" fill="white" fill-opacity="0.86"/>
<g clip-path="url(#clip0_2155_1112)">
<path d="M52.6134 43.5161C54.0658 41.5342 54.7163 39.0769 54.4348 36.6359C54.1533 34.1949 52.9605 31.9502 51.095 30.3508C49.2295 28.7515 46.829 27.9156 44.3736 28.0102C41.9183 28.1048 39.5891 29.123 37.8523 30.8611C36.1154 32.5992 35.0988 34.9291 35.006 37.3845C34.9131 39.8399 35.7508 42.2399 37.3515 44.1042C38.9521 45.9685 41.1977 47.1598 43.6389 47.4395C46.0801 47.7193 48.5369 47.067 50.5179 45.6131H50.5164C50.5604 45.6731 50.6094 45.7306 50.6634 45.7857L56.4384 51.5606C56.7196 51.8421 57.1012 52.0003 57.4991 52.0005C57.897 52.0006 58.2787 51.8427 58.5601 51.5614C58.8416 51.2801 58.9998 50.8986 58.9999 50.5007C59.0001 50.1028 58.8421 49.7211 58.5609 49.4397L52.7859 43.6646C52.7323 43.6103 52.6746 43.5617 52.6134 43.5161ZM53.0004 37.7502C53.0004 38.8336 52.787 39.9064 52.3724 40.9073C51.9578 41.9082 51.3501 42.8177 50.584 43.5838C49.8179 44.3499 48.9084 44.9576 47.9075 45.3722C46.9066 45.7868 45.8338 46.0002 44.7504 46.0002C43.667 46.0002 42.5942 45.7868 41.5932 45.3722C40.5923 44.9576 39.6828 44.3499 38.9167 43.5838C38.1507 42.8177 37.543 41.9082 37.1284 40.9073C36.7138 39.9064 36.5004 38.8336 36.5004 37.7502C36.5004 35.5621 37.3696 33.4637 38.9167 31.9165C40.4639 30.3693 42.5623 29.5002 44.7504 29.5002C46.9384 29.5002 49.0368 30.3693 50.584 31.9165C52.1312 33.4637 53.0004 35.5621 53.0004 37.7502Z" fill="#1D1A1A"/>
</g>
<path d="M92.328 45V33.08H96.232C97.4373 33.08 98.488 33.3253 99.384 33.816C100.28 34.3067 100.973 35 101.464 35.896C101.955 36.7813 102.2 37.8267 102.2 39.032C102.2 40.2267 101.955 41.272 101.464 42.168C100.973 43.064 100.28 43.7627 99.384 44.264C98.488 44.7547 97.4373 45 96.232 45H92.328ZM93.896 43.56H96.248C97.1333 43.56 97.896 43.3733 98.536 43C99.1867 42.6267 99.688 42.104 100.04 41.432C100.392 40.7493 100.568 39.9493 100.568 39.032C100.568 38.104 100.387 37.304 100.024 36.632C99.672 35.96 99.1707 35.4427 98.52 35.08C97.88 34.7067 97.1227 34.52 96.248 34.52H93.896V43.56ZM104.011 45V36.376H105.499V45H104.011ZM104.011 35V33.08H105.499V35H104.011ZM110.896 45.192C110.032 45.192 109.28 44.9787 108.64 44.552C108 44.1253 107.547 43.5493 107.28 42.824L108.464 42.248C108.71 42.76 109.046 43.1653 109.472 43.464C109.899 43.7627 110.374 43.912 110.896 43.912C111.366 43.912 111.755 43.8 112.064 43.576C112.374 43.352 112.528 43.0587 112.528 42.696C112.528 42.44 112.454 42.2373 112.304 42.088C112.166 41.928 111.995 41.8053 111.792 41.72C111.59 41.624 111.403 41.5547 111.232 41.512L109.936 41.144C109.158 40.92 108.587 40.6 108.224 40.184C107.872 39.768 107.696 39.2827 107.696 38.728C107.696 38.216 107.824 37.7733 108.08 37.4C108.347 37.016 108.704 36.7173 109.152 36.504C109.611 36.2907 110.123 36.184 110.688 36.184C111.446 36.184 112.123 36.376 112.72 36.76C113.328 37.144 113.76 37.6827 114.016 38.376L112.8 38.936C112.608 38.488 112.32 38.136 111.936 37.88C111.552 37.6133 111.12 37.48 110.64 37.48C110.203 37.48 109.856 37.592 109.6 37.816C109.344 38.0293 109.216 38.3013 109.216 38.632C109.216 38.8773 109.28 39.08 109.408 39.24C109.536 39.3893 109.691 39.5067 109.872 39.592C110.054 39.6667 110.23 39.7307 110.4 39.784L111.808 40.2C112.512 40.4027 113.056 40.7173 113.44 41.144C113.835 41.5707 114.032 42.0827 114.032 42.68C114.032 43.16 113.899 43.592 113.632 43.976C113.366 44.36 112.998 44.6587 112.528 44.872C112.059 45.0853 111.515 45.192 110.896 45.192ZM119.98 45.192C119.137 45.192 118.385 44.9947 117.724 44.6C117.073 44.2053 116.561 43.6667 116.188 42.984C115.815 42.3013 115.628 41.5333 115.628 40.68C115.628 39.816 115.815 39.048 116.188 38.376C116.561 37.704 117.073 37.1707 117.724 36.776C118.385 36.3813 119.137 36.184 119.98 36.184C120.545 36.184 121.073 36.2853 121.564 36.488C122.055 36.6907 122.487 36.9627 122.86 37.304C123.233 37.6453 123.505 38.0453 123.676 38.504L122.348 39.144C122.145 38.696 121.836 38.3333 121.42 38.056C121.004 37.768 120.524 37.624 119.98 37.624C119.457 37.624 118.983 37.7573 118.556 38.024C118.14 38.2907 117.809 38.6533 117.564 39.112C117.319 39.5707 117.196 40.0987 117.196 40.696C117.196 41.272 117.319 41.7947 117.564 42.264C117.809 42.7227 118.14 43.0853 118.556 43.352C118.983 43.6187 119.457 43.752 119.98 43.752C120.524 43.752 121.004 43.6133 121.42 43.336C121.836 43.048 122.145 42.6693 122.348 42.2L123.676 42.872C123.505 43.32 123.233 43.72 122.86 44.072C122.487 44.4133 122.055 44.6853 121.564 44.888C121.073 45.0907 120.545 45.192 119.98 45.192ZM129.717 45.192C128.885 45.192 128.133 45 127.461 44.616C126.789 44.2213 126.255 43.6827 125.861 43C125.466 42.3173 125.269 41.544 125.269 40.68C125.269 39.816 125.461 39.048 125.845 38.376C126.239 37.704 126.773 37.1707 127.445 36.776C128.117 36.3813 128.874 36.184 129.717 36.184C130.549 36.184 131.301 36.3813 131.973 36.776C132.645 37.16 133.173 37.688 133.557 38.36C133.951 39.032 134.149 39.8053 134.149 40.68C134.149 41.5547 133.946 42.3333 133.541 43.016C133.135 43.688 132.597 44.2213 131.925 44.616C131.263 45 130.527 45.192 129.717 45.192ZM129.717 43.752C130.25 43.752 130.73 43.6187 131.157 43.352C131.594 43.0853 131.935 42.7173 132.181 42.248C132.437 41.7787 132.565 41.256 132.565 40.68C132.565 40.0933 132.437 39.576 132.181 39.128C131.935 38.6693 131.594 38.3067 131.157 38.04C130.73 37.7627 130.25 37.624 129.717 37.624C129.173 37.624 128.682 37.7627 128.245 38.04C127.818 38.3067 127.477 38.6693 127.221 39.128C126.965 39.576 126.837 40.0933 126.837 40.68C126.837 41.256 126.965 41.7787 127.221 42.248C127.477 42.7173 127.818 43.0853 128.245 43.352C128.682 43.6187 129.173 43.752 129.717 43.752ZM138.333 45L134.957 36.376H136.621L139.325 43.672H138.749L141.469 36.376H143.133L139.741 45H138.333ZM148.276 45.192C147.444 45.192 146.703 44.9947 146.052 44.6C145.402 44.2053 144.89 43.6667 144.516 42.984C144.143 42.2907 143.956 41.5173 143.956 40.664C143.956 39.8 144.138 39.032 144.5 38.36C144.874 37.688 145.375 37.16 146.004 36.776C146.644 36.3813 147.359 36.184 148.148 36.184C148.788 36.184 149.354 36.3013 149.844 36.536C150.346 36.76 150.767 37.0693 151.108 37.464C151.46 37.848 151.727 38.2907 151.908 38.792C152.1 39.2827 152.196 39.7947 152.196 40.328C152.196 40.4453 152.186 40.5787 152.164 40.728C152.154 40.8667 152.138 41 152.116 41.128H145.044V39.848H151.252L150.548 40.424C150.644 39.8693 150.591 39.3733 150.388 38.936C150.186 38.4987 149.887 38.152 149.492 37.896C149.098 37.64 148.65 37.512 148.148 37.512C147.647 37.512 147.188 37.64 146.772 37.896C146.356 38.152 146.031 38.52 145.796 39C145.572 39.4693 145.482 40.0293 145.524 40.68C145.482 41.3093 145.578 41.864 145.812 42.344C146.058 42.8133 146.399 43.1813 146.836 43.448C147.284 43.704 147.77 43.832 148.292 43.832C148.868 43.832 149.354 43.6987 149.748 43.432C150.143 43.1653 150.463 42.824 150.708 42.408L151.956 43.048C151.786 43.4427 151.519 43.8053 151.156 44.136C150.804 44.456 150.383 44.712 149.892 44.904C149.412 45.096 148.874 45.192 148.276 45.192ZM154.136 45V36.376H155.592V37.96L155.432 37.736C155.635 37.2453 155.944 36.8827 156.36 36.648C156.776 36.4027 157.283 36.28 157.88 36.28H158.408V37.688H157.656C157.048 37.688 156.558 37.88 156.184 38.264C155.811 38.6373 155.624 39.1707 155.624 39.864V45H154.136ZM160.194 48.52C160.002 48.52 159.81 48.504 159.618 48.472C159.426 48.4507 159.245 48.4027 159.074 48.328V47C159.191 47.0107 159.335 47.032 159.506 47.064C159.687 47.096 159.863 47.112 160.034 47.112C160.535 47.112 160.914 47 161.17 46.776C161.437 46.552 161.687 46.1733 161.922 45.64L162.466 44.344L162.434 45.64L158.754 36.376H160.37L163.234 43.736H162.754L165.602 36.376H167.25L163.362 46.024C163.181 46.4827 162.946 46.904 162.658 47.288C162.381 47.672 162.039 47.9707 161.634 48.184C161.229 48.408 160.749 48.52 160.194 48.52ZM171.948 45V43.08H173.5V45H171.948ZM177.026 45V43.08H178.578V45H177.026ZM182.104 45V43.08H183.656V45H182.104Z" fill="#1D1A1A"/>
</g>
<g filter="url(#filter1_f_2155_1112)">
<rect x="9.5" y="6.10742" width="307" height="62.1366" rx="31.0683" fill="white" fill-opacity="0.18"/>
</g>
<defs>
<filter id="filter0_dddd_2155_1112" x="-2" y="3" width="341" height="89.5513" filterUnits="userSpaceOnUse" color-interpolation-filters="sRGB">
<feFlood flood-opacity="0" result="BackgroundImageFix"/>
<feColorMatrix in="SourceAlpha" type="matrix" values="0 0 0 0 0 0 0 0 0 0 0 0 0 0 0 0 0 0 127 0" result="hardAlpha"/>
<feOffset dy="1"/>
<feGaussianBlur stdDeviation="1"/>
<feColorMatrix type="matrix" values="0 0 0 0 0 0 0 0 0 0 0 0 0 0 0 0 0 0 0.1 0"/>
<feBlend mode="normal" in2="BackgroundImageFix" result="effect1_dropShadow_2155_1112"/>
<feColorMatrix in="SourceAlpha" type="matrix" values="0 0 0 0 0 0 0 0 0 0 0 0 0 0 0 0 0 0 127 0" result="hardAlpha"/>
<feOffset dx="2" dy="3"/>
<feGaussianBlur stdDeviation="1.5"/>
<feColorMatrix type="matrix" values="0 0 0 0 0 0 0 0 0 0 0 0 0 0 0 0 0 0 0.09 0"/>
<feBlend mode="normal" in2="effect1_dropShadow_2155_1112" result="effect2_dropShadow_2155_1112"/>
<feColorMatrix in="SourceAlpha" type="matrix" values="0 0 0 0 0 0 0 0 0 0 0 0 0 0 0 0 0 0 127 0" result="hardAlpha"/>
<feOffset dx="4" dy="7"/>
<feGaussianBlur stdDeviation="2.5"/>
<feColorMatrix type="matrix" values="0 0 0 0 0 0 0 0 0 0 0 0 0 0 0 0 0 0 0.05 0"/>
<feBlend mode="normal" in2="effect2_dropShadow_2155_1112" result="effect3_dropShadow_2155_1112"/>
<feColorMatrix in="SourceAlpha" type="matrix" values="0 0 0 0 0 0 0 0 0 0 0 0 0 0 0 0 0 0 127 0" result="hardAlpha"/>
<feOffset dx="7" dy="12"/>
<feGaussianBlur stdDeviation="2.5"/>
<feColorMatrix type="matrix" values="0 0 0 0 0 0 0 0 0 0 0 0 0 0 0 0 0 0 0.01 0"/>
<feBlend mode="normal" in2="effect3_dropShadow_2155_1112" result="effect4_dropShadow_2155_1112"/>
<feBlend mode="normal" in="SourceGraphic" in2="effect4_dropShadow_2155_1112" result="shape"/>
</filter>
<filter id="filter1_f_2155_1112" x="3.5" y="0.107422" width="319" height="74.1367" filterUnits="userSpaceOnUse" color-interpolation-filters="sRGB">
<feFlood flood-opacity="0" result="BackgroundImageFix"/>
<feBlend mode="normal" in="SourceGraphic" in2="BackgroundImageFix" result="shape"/>
<feGaussianBlur stdDeviation="3" result="effect1_foregroundBlur_2155_1112"/>
</filter>
<clipPath id="clip0_2155_1112">
<rect width="24" height="24" fill="white" transform="translate(35 28)"/>
</clipPath>
</defs>
</svg>
