<svg width="30" height="30" viewBox="0 0 30 30" fill="none" xmlns="http://www.w3.org/2000/svg">
<g clip-path="url(#clip0_2014_347)">
<path d="M15 0.625C6.73125 0.625 0 6.1225 0 12.8788C0 18.93 5.3375 24 12.5437 24.9638C13.0325 25.0675 13.6975 25.2888 13.8663 25.7063C14.0163 26.085 13.965 26.67 13.9137 27.065L13.7087 28.3475C13.6525 28.7262 13.4087 29.8387 15.02 29.1587C16.6337 28.4812 23.665 24.0288 26.815 20.385C28.97 18.01 30 15.5763 30 12.8788C30 6.1225 23.2687 0.625 15 0.625ZM9.12875 16.8962H6.14625C5.93735 16.8943 5.73763 16.8102 5.59026 16.6621C5.44289 16.514 5.35973 16.3139 5.35875 16.105V10.1038C5.35875 9.67 5.715 9.31125 6.14625 9.31125C6.58125 9.31125 6.93375 9.67 6.93375 10.1038V15.3125H9.12875C9.33332 15.3206 9.52681 15.4076 9.66868 15.5552C9.81055 15.7028 9.88978 15.8996 9.88978 16.1044C9.88978 16.3091 9.81055 16.5059 9.66868 16.6535C9.52681 16.8011 9.33332 16.8881 9.12875 16.8962ZM12.2113 16.105C12.2109 16.3143 12.1278 16.515 11.98 16.6633C11.8322 16.8115 11.6318 16.8953 11.4225 16.8962C11.2139 16.8943 11.0146 16.81 10.8678 16.6619C10.7211 16.5137 10.6387 16.3136 10.6388 16.105V10.1038C10.6388 9.67 10.9913 9.31125 11.4262 9.31125C11.8587 9.31125 12.2113 9.67 12.2113 10.1038V16.105ZM19.3875 16.105C19.3879 16.2715 19.3357 16.4339 19.2384 16.569C19.1411 16.7041 19.0037 16.8051 18.8457 16.8576C18.6877 16.9101 18.5171 16.9114 18.3583 16.8613C18.1995 16.8112 18.0606 16.7124 17.9613 16.5787L14.9075 12.4062V16.1038C14.9077 16.2075 14.8874 16.3103 14.8478 16.4062C14.8083 16.5021 14.7502 16.5893 14.677 16.6627C14.6038 16.7362 14.5168 16.7945 14.421 16.8344C14.3252 16.8742 14.2225 16.8948 14.1187 16.895C13.9103 16.893 13.7111 16.8087 13.5645 16.6605C13.418 16.5123 13.3359 16.3122 13.3362 16.1038V10.1038C13.3356 9.89575 13.4172 9.69594 13.5634 9.54793C13.7095 9.39991 13.9083 9.31573 14.1163 9.31375C14.36 9.31375 14.585 9.445 14.735 9.63375L17.8125 13.8225V10.1038C17.8125 9.67 18.165 9.31125 18.6 9.31125C19.0312 9.31125 19.3875 9.67 19.3875 10.1038V16.105ZM24.2062 12.3112C24.4166 12.3112 24.6183 12.3948 24.7671 12.5436C24.9158 12.6923 24.9994 12.894 24.9994 13.1044C24.9994 13.3147 24.9158 13.5165 24.7671 13.6652C24.6183 13.8139 24.4166 13.8975 24.2062 13.8975H22.0125V15.3125H24.2062C24.4163 15.3125 24.6177 15.3959 24.7662 15.5444C24.9147 15.6929 24.9981 15.8944 24.9981 16.1044C24.9981 16.3144 24.9147 16.5158 24.7662 16.6643C24.6177 16.8128 24.4163 16.8962 24.2062 16.8962H21.2238C21.0152 16.8943 20.8159 16.81 20.6691 16.6619C20.5223 16.5137 20.44 16.3136 20.44 16.105V10.1038C20.44 9.67 20.7925 9.31125 21.2275 9.31125H24.21C24.6425 9.31125 24.9938 9.67 24.9938 10.1038C24.9944 10.2076 24.9745 10.3105 24.9352 10.4066C24.896 10.5028 24.8381 10.5902 24.7649 10.6638C24.6917 10.7375 24.6046 10.7959 24.5088 10.8358C24.4129 10.8757 24.3101 10.8963 24.2062 10.8962H22.0125V12.3112H24.2062Z" fill="white" fill-opacity="0.86"/>
</g>
<defs>
<clipPath id="clip0_2014_347">
<rect width="30" height="30" fill="white"/>
</clipPath>
</defs>
</svg>
