<svg width="56" height="56" viewBox="0 0 56 56" fill="none" xmlns="http://www.w3.org/2000/svg">
<rect x="0.5" y="0.5" width="55" height="55" rx="27.5" stroke="white" stroke-opacity="0.86"/>
<path d="M25.3337 41.3334V32.0001H22.667V24.0001C22.667 23.2668 22.9283 22.6392 23.451 22.1174C23.9737 21.5956 24.6012 21.3343 25.3337 21.3334H30.667C31.4003 21.3334 32.0283 21.5948 32.551 22.1174C33.0737 22.6401 33.3345 23.2676 33.3337 24.0001V32.0001H30.667V41.3334H25.3337ZM28.0003 20.0001C27.267 20.0001 26.6394 19.7392 26.1177 19.2174C25.5959 18.6956 25.3345 18.0676 25.3337 17.3334C25.3328 16.5992 25.5941 15.9716 26.1177 15.4508C26.6412 14.9299 27.2688 14.6685 28.0003 14.6668C28.7319 14.665 29.3599 14.9263 29.8843 15.4508C30.4088 15.9752 30.6697 16.6028 30.667 17.3334C30.6643 18.0641 30.4034 18.6921 29.8843 19.2174C29.3652 19.7428 28.7372 20.0036 28.0003 20.0001Z" fill="white" fill-opacity="0.86"/>
</svg>
