<svg width="329" height="83" viewBox="0 0 329 83" fill="none" xmlns="http://www.w3.org/2000/svg">
<g filter="url(#filter0_dddd_1997_68)">
<rect x="10" y="10" width="307" height="56" rx="28" fill="white" fill-opacity="0.86"/>
<g clip-path="url(#clip0_1997_68)">
<path d="M52.6134 39.5161C54.0658 37.5342 54.7163 35.0769 54.4348 32.6359C54.1533 30.1949 52.9605 27.9502 51.095 26.3508C49.2295 24.7515 46.829 23.9156 44.3736 24.0102C41.9183 24.1048 39.5891 25.123 37.8523 26.8611C36.1154 28.5992 35.0988 30.9291 35.006 33.3845C34.9131 35.8399 35.7508 38.2399 37.3515 40.1042C38.9521 41.9685 41.1977 43.1598 43.6389 43.4395C46.0801 43.7193 48.5369 43.067 50.5179 41.6131H50.5164C50.5604 41.6731 50.6094 41.7306 50.6634 41.7857L56.4384 47.5606C56.7196 47.8421 57.1012 48.0003 57.4991 48.0005C57.897 48.0006 58.2787 47.8427 58.5601 47.5614C58.8416 47.2801 58.9998 46.8986 58.9999 46.5007C59.0001 46.1028 58.8421 45.7211 58.5609 45.4397L52.7859 39.6646C52.7323 39.6103 52.6746 39.5617 52.6134 39.5161ZM53.0004 33.7502C53.0004 34.8336 52.787 35.9064 52.3724 36.9073C51.9578 37.9082 51.3501 38.8177 50.584 39.5838C49.8179 40.3499 48.9084 40.9576 47.9075 41.3722C46.9066 41.7868 45.8338 42.0002 44.7504 42.0002C43.667 42.0002 42.5942 41.7868 41.5932 41.3722C40.5923 40.9576 39.6828 40.3499 38.9167 39.5838C38.1507 38.8177 37.543 37.9082 37.1284 36.9073C36.7138 35.9064 36.5004 34.8336 36.5004 33.7502C36.5004 31.5621 37.3696 29.4637 38.9167 27.9165C40.4639 26.3693 42.5623 25.5002 44.7504 25.5002C46.9384 25.5002 49.0368 26.3693 50.584 27.9165C52.1312 29.4637 53.0004 31.5621 53.0004 33.7502Z" fill="#1D1A1A"/>
</g>
<path d="M92.328 41V29.08H96.232C97.4373 29.08 98.488 29.3253 99.384 29.816C100.28 30.3067 100.973 31 101.464 31.896C101.955 32.7813 102.2 33.8267 102.2 35.032C102.2 36.2267 101.955 37.272 101.464 38.168C100.973 39.064 100.28 39.7627 99.384 40.264C98.488 40.7547 97.4373 41 96.232 41H92.328ZM93.896 39.56H96.248C97.1333 39.56 97.896 39.3733 98.536 39C99.1867 38.6267 99.688 38.104 100.04 37.432C100.392 36.7493 100.568 35.9493 100.568 35.032C100.568 34.104 100.387 33.304 100.024 32.632C99.672 31.96 99.1707 31.4427 98.52 31.08C97.88 30.7067 97.1227 30.52 96.248 30.52H93.896V39.56ZM104.011 41V32.376H105.499V41H104.011ZM104.011 31V29.08H105.499V31H104.011ZM110.896 41.192C110.032 41.192 109.28 40.9787 108.64 40.552C108 40.1253 107.547 39.5493 107.28 38.824L108.464 38.248C108.71 38.76 109.046 39.1653 109.472 39.464C109.899 39.7627 110.374 39.912 110.896 39.912C111.366 39.912 111.755 39.8 112.064 39.576C112.374 39.352 112.528 39.0587 112.528 38.696C112.528 38.44 112.454 38.2373 112.304 38.088C112.166 37.928 111.995 37.8053 111.792 37.72C111.59 37.624 111.403 37.5547 111.232 37.512L109.936 37.144C109.158 36.92 108.587 36.6 108.224 36.184C107.872 35.768 107.696 35.2827 107.696 34.728C107.696 34.216 107.824 33.7733 108.08 33.4C108.347 33.016 108.704 32.7173 109.152 32.504C109.611 32.2907 110.123 32.184 110.688 32.184C111.446 32.184 112.123 32.376 112.72 32.76C113.328 33.144 113.76 33.6827 114.016 34.376L112.8 34.936C112.608 34.488 112.32 34.136 111.936 33.88C111.552 33.6133 111.12 33.48 110.64 33.48C110.203 33.48 109.856 33.592 109.6 33.816C109.344 34.0293 109.216 34.3013 109.216 34.632C109.216 34.8773 109.28 35.08 109.408 35.24C109.536 35.3893 109.691 35.5067 109.872 35.592C110.054 35.6667 110.23 35.7307 110.4 35.784L111.808 36.2C112.512 36.4027 113.056 36.7173 113.44 37.144C113.835 37.5707 114.032 38.0827 114.032 38.68C114.032 39.16 113.899 39.592 113.632 39.976C113.366 40.36 112.998 40.6587 112.528 40.872C112.059 41.0853 111.515 41.192 110.896 41.192ZM119.98 41.192C119.137 41.192 118.385 40.9947 117.724 40.6C117.073 40.2053 116.561 39.6667 116.188 38.984C115.815 38.3013 115.628 37.5333 115.628 36.68C115.628 35.816 115.815 35.048 116.188 34.376C116.561 33.704 117.073 33.1707 117.724 32.776C118.385 32.3813 119.137 32.184 119.98 32.184C120.545 32.184 121.073 32.2853 121.564 32.488C122.055 32.6907 122.487 32.9627 122.86 33.304C123.233 33.6453 123.505 34.0453 123.676 34.504L122.348 35.144C122.145 34.696 121.836 34.3333 121.42 34.056C121.004 33.768 120.524 33.624 119.98 33.624C119.457 33.624 118.983 33.7573 118.556 34.024C118.14 34.2907 117.809 34.6533 117.564 35.112C117.319 35.5707 117.196 36.0987 117.196 36.696C117.196 37.272 117.319 37.7947 117.564 38.264C117.809 38.7227 118.14 39.0853 118.556 39.352C118.983 39.6187 119.457 39.752 119.98 39.752C120.524 39.752 121.004 39.6133 121.42 39.336C121.836 39.048 122.145 38.6693 122.348 38.2L123.676 38.872C123.505 39.32 123.233 39.72 122.86 40.072C122.487 40.4133 122.055 40.6853 121.564 40.888C121.073 41.0907 120.545 41.192 119.98 41.192ZM129.717 41.192C128.885 41.192 128.133 41 127.461 40.616C126.789 40.2213 126.255 39.6827 125.861 39C125.466 38.3173 125.269 37.544 125.269 36.68C125.269 35.816 125.461 35.048 125.845 34.376C126.239 33.704 126.773 33.1707 127.445 32.776C128.117 32.3813 128.874 32.184 129.717 32.184C130.549 32.184 131.301 32.3813 131.973 32.776C132.645 33.16 133.173 33.688 133.557 34.36C133.951 35.032 134.149 35.8053 134.149 36.68C134.149 37.5547 133.946 38.3333 133.541 39.016C133.135 39.688 132.597 40.2213 131.925 40.616C131.263 41 130.527 41.192 129.717 41.192ZM129.717 39.752C130.25 39.752 130.73 39.6187 131.157 39.352C131.594 39.0853 131.935 38.7173 132.181 38.248C132.437 37.7787 132.565 37.256 132.565 36.68C132.565 36.0933 132.437 35.576 132.181 35.128C131.935 34.6693 131.594 34.3067 131.157 34.04C130.73 33.7627 130.25 33.624 129.717 33.624C129.173 33.624 128.682 33.7627 128.245 34.04C127.818 34.3067 127.477 34.6693 127.221 35.128C126.965 35.576 126.837 36.0933 126.837 36.68C126.837 37.256 126.965 37.7787 127.221 38.248C127.477 38.7173 127.818 39.0853 128.245 39.352C128.682 39.6187 129.173 39.752 129.717 39.752ZM138.333 41L134.957 32.376H136.621L139.325 39.672H138.749L141.469 32.376H143.133L139.741 41H138.333ZM148.276 41.192C147.444 41.192 146.703 40.9947 146.052 40.6C145.402 40.2053 144.89 39.6667 144.516 38.984C144.143 38.2907 143.956 37.5173 143.956 36.664C143.956 35.8 144.138 35.032 144.5 34.36C144.874 33.688 145.375 33.16 146.004 32.776C146.644 32.3813 147.359 32.184 148.148 32.184C148.788 32.184 149.354 32.3013 149.844 32.536C150.346 32.76 150.767 33.0693 151.108 33.464C151.46 33.848 151.727 34.2907 151.908 34.792C152.1 35.2827 152.196 35.7947 152.196 36.328C152.196 36.4453 152.186 36.5787 152.164 36.728C152.154 36.8667 152.138 37 152.116 37.128H145.044V35.848H151.252L150.548 36.424C150.644 35.8693 150.591 35.3733 150.388 34.936C150.186 34.4987 149.887 34.152 149.492 33.896C149.098 33.64 148.65 33.512 148.148 33.512C147.647 33.512 147.188 33.64 146.772 33.896C146.356 34.152 146.031 34.52 145.796 35C145.572 35.4693 145.482 36.0293 145.524 36.68C145.482 37.3093 145.578 37.864 145.812 38.344C146.058 38.8133 146.399 39.1813 146.836 39.448C147.284 39.704 147.77 39.832 148.292 39.832C148.868 39.832 149.354 39.6987 149.748 39.432C150.143 39.1653 150.463 38.824 150.708 38.408L151.956 39.048C151.786 39.4427 151.519 39.8053 151.156 40.136C150.804 40.456 150.383 40.712 149.892 40.904C149.412 41.096 148.874 41.192 148.276 41.192ZM154.136 41V32.376H155.592V33.96L155.432 33.736C155.635 33.2453 155.944 32.8827 156.36 32.648C156.776 32.4027 157.283 32.28 157.88 32.28H158.408V33.688H157.656C157.048 33.688 156.558 33.88 156.184 34.264C155.811 34.6373 155.624 35.1707 155.624 35.864V41H154.136ZM160.194 44.52C160.002 44.52 159.81 44.504 159.618 44.472C159.426 44.4507 159.245 44.4027 159.074 44.328V43C159.191 43.0107 159.335 43.032 159.506 43.064C159.687 43.096 159.863 43.112 160.034 43.112C160.535 43.112 160.914 43 161.17 42.776C161.437 42.552 161.687 42.1733 161.922 41.64L162.466 40.344L162.434 41.64L158.754 32.376H160.37L163.234 39.736H162.754L165.602 32.376H167.25L163.362 42.024C163.181 42.4827 162.946 42.904 162.658 43.288C162.381 43.672 162.039 43.9707 161.634 44.184C161.229 44.408 160.749 44.52 160.194 44.52ZM171.948 41V39.08H173.5V41H171.948ZM177.026 41V39.08H178.578V41H177.026ZM182.104 41V39.08H183.656V41H182.104Z" fill="#1D1A1A"/>
</g>
<defs>
<filter id="filter0_dddd_1997_68" x="-2" y="-1" width="341" height="89.5513" filterUnits="userSpaceOnUse" color-interpolation-filters="sRGB">
<feFlood flood-opacity="0" result="BackgroundImageFix"/>
<feColorMatrix in="SourceAlpha" type="matrix" values="0 0 0 0 0 0 0 0 0 0 0 0 0 0 0 0 0 0 127 0" result="hardAlpha"/>
<feOffset dy="1"/>
<feGaussianBlur stdDeviation="1"/>
<feColorMatrix type="matrix" values="0 0 0 0 0 0 0 0 0 0 0 0 0 0 0 0 0 0 0.1 0"/>
<feBlend mode="normal" in2="BackgroundImageFix" result="effect1_dropShadow_1997_68"/>
<feColorMatrix in="SourceAlpha" type="matrix" values="0 0 0 0 0 0 0 0 0 0 0 0 0 0 0 0 0 0 127 0" result="hardAlpha"/>
<feOffset dx="2" dy="3"/>
<feGaussianBlur stdDeviation="1.5"/>
<feColorMatrix type="matrix" values="0 0 0 0 0 0 0 0 0 0 0 0 0 0 0 0 0 0 0.09 0"/>
<feBlend mode="normal" in2="effect1_dropShadow_1997_68" result="effect2_dropShadow_1997_68"/>
<feColorMatrix in="SourceAlpha" type="matrix" values="0 0 0 0 0 0 0 0 0 0 0 0 0 0 0 0 0 0 127 0" result="hardAlpha"/>
<feOffset dx="4" dy="7"/>
<feGaussianBlur stdDeviation="2.5"/>
<feColorMatrix type="matrix" values="0 0 0 0 0 0 0 0 0 0 0 0 0 0 0 0 0 0 0.05 0"/>
<feBlend mode="normal" in2="effect2_dropShadow_1997_68" result="effect3_dropShadow_1997_68"/>
<feColorMatrix in="SourceAlpha" type="matrix" values="0 0 0 0 0 0 0 0 0 0 0 0 0 0 0 0 0 0 127 0" result="hardAlpha"/>
<feOffset dx="7" dy="12"/>
<feGaussianBlur stdDeviation="2.5"/>
<feColorMatrix type="matrix" values="0 0 0 0 0 0 0 0 0 0 0 0 0 0 0 0 0 0 0.01 0"/>
<feBlend mode="normal" in2="effect3_dropShadow_1997_68" result="effect4_dropShadow_1997_68"/>
<feBlend mode="normal" in="SourceGraphic" in2="effect4_dropShadow_1997_68" result="shape"/>
</filter>
<clipPath id="clip0_1997_68">
<rect width="24" height="24" fill="white" transform="translate(35 24)"/>
</clipPath>
</defs>
</svg>
