<svg width="56" height="56" viewBox="0 0 56 56" fill="none" xmlns="http://www.w3.org/2000/svg">
<rect x="0.5" y="0.5" width="55" height="55" rx="27.5" stroke="white" stroke-opacity="0.86"/>
<path d="M25.333 41.3334V33.3334H21.333L25.3997 23.0668C25.6219 22.5334 25.9663 22.1112 26.433 21.8001C26.8997 21.489 27.4219 21.3334 27.9997 21.3334C28.5775 21.3334 29.0997 21.489 29.5663 21.8001C30.033 22.1112 30.3775 22.5334 30.5997 23.0668L34.6663 33.3334H30.6663V41.3334H25.333ZM27.9997 20.0001C27.2663 20.0001 26.6388 19.7392 26.117 19.2174C25.5952 18.6956 25.3339 18.0676 25.333 17.3334C25.3321 16.5992 25.5935 15.9716 26.117 15.4508C26.6406 14.9299 27.2681 14.6685 27.9997 14.6668C28.7312 14.665 29.3592 14.9263 29.8837 15.4508C30.4081 15.9752 30.669 16.6028 30.6663 17.3334C30.6637 18.0641 30.4028 18.6921 29.8837 19.2174C29.3646 19.7428 28.7366 20.0036 27.9997 20.0001Z" fill="white" fill-opacity="0.86"/>
</svg>
